<svg xmlns="http://www.w3.org/2000/svg" viewBox="0 0 960 540" role="img" aria-labelledby="title desc">
  <title id="title">Student life placeholder</title>
  <desc id="desc">A stylized student activity placeholder for the group activity gallery.</desc>
  <defs>
    <linearGradient id="bg" x1="0" x2="1" y1="0" y2="1">
      <stop offset="0" stop-color="#eef9f4" />
      <stop offset="1" stop-color="#fff3ea" />
    </linearGradient>
    <linearGradient id="table" x1="0" x2="1" y1="0" y2="0">
      <stop offset="0" stop-color="#2a9d8f" />
      <stop offset="1" stop-color="#eb7f3c" />
    </linearGradient>
  </defs>
  <rect width="960" height="540" fill="url(#bg)" />
  <rect x="96" y="90" width="768" height="320" rx="28" fill="#ffffff" />
  <ellipse cx="480" cy="310" rx="270" ry="68" fill="url(#table)" opacity=".9" />
  <circle cx="284" cy="205" r="42" fill="#15324f" />
  <circle cx="424" cy="184" r="42" fill="#0076df" />
  <circle cx="562" cy="184" r="42" fill="#2a9d8f" />
  <circle cx="700" cy="205" r="42" fill="#f2b84b" />
  <path d="M214 342c8-64 45-104 94-104s86 40 94 104" fill="#15324f" opacity=".94" />
  <path d="M354 324c8-64 45-104 94-104s86 40 94 104" fill="#0076df" opacity=".9" />
  <path d="M492 324c8-64 45-104 94-104s86 40 94 104" fill="#2a9d8f" opacity=".9" />
  <path d="M630 342c8-64 45-104 94-104s86 40 94 104" fill="#f2b84b" opacity=".9" />
  <rect x="374" y="284" width="214" height="24" rx="12" fill="#ffffff" opacity=".78" />
  <rect x="408" y="326" width="146" height="18" rx="9" fill="#ffffff" opacity=".62" />
  <text x="96" y="488" fill="#15324f" font-family="Arial, Helvetica, sans-serif" font-size="30" font-weight="700">Student Life</text>
</svg>
