<svg xmlns="http://www.w3.org/2000/svg" viewBox="0 0 960 540" role="img" aria-labelledby="title desc">
  <title id="title">Weekly seminar placeholder</title>
  <desc id="desc">A stylized seminar room placeholder for the group activity gallery.</desc>
  <defs>
    <linearGradient id="bg" x1="0" x2="1" y1="0" y2="1">
      <stop offset="0" stop-color="#f1f7ff" />
      <stop offset="1" stop-color="#d8ecff" />
    </linearGradient>
    <linearGradient id="panel" x1="0" x2="1" y1="0" y2="1">
      <stop offset="0" stop-color="#0b5cad" />
      <stop offset="1" stop-color="#00a3a3" />
    </linearGradient>
  </defs>
  <rect width="960" height="540" fill="url(#bg)" />
  <rect x="96" y="84" width="768" height="330" rx="22" fill="#ffffff" />
  <rect x="132" y="122" width="448" height="234" rx="14" fill="url(#panel)" />
  <rect x="168" y="160" width="222" height="22" rx="11" fill="#ffffff" opacity=".92" />
  <rect x="168" y="202" width="342" height="12" rx="6" fill="#ffffff" opacity=".62" />
  <rect x="168" y="232" width="300" height="12" rx="6" fill="#ffffff" opacity=".46" />
  <circle cx="664" cy="185" r="42" fill="#eb7f3c" />
  <path d="M596 332c9-58 42-92 83-92s74 34 83 92" fill="#15324f" />
  <circle cx="744" cy="298" r="26" fill="#5bb7a8" />
  <circle cx="225" cy="430" r="32" fill="#15324f" opacity=".9" />
  <circle cx="318" cy="430" r="32" fill="#3267c2" opacity=".9" />
  <circle cx="411" cy="430" r="32" fill="#5bb7a8" opacity=".9" />
  <circle cx="504" cy="430" r="32" fill="#eb7f3c" opacity=".9" />
  <text x="96" y="488" fill="#15324f" font-family="Arial, Helvetica, sans-serif" font-size="30" font-weight="700">Weekly Seminar</text>
</svg>
