<svg xmlns="http://www.w3.org/2000/svg" viewBox="0 0 960 540" role="img" aria-labelledby="title desc">
  <title id="title">Academic events placeholder</title>
  <desc id="desc">A stylized academic event placeholder for the group activity gallery.</desc>
  <defs>
    <linearGradient id="bg" x1="0" x2="1" y1="0" y2="1">
      <stop offset="0" stop-color="#f3f0ff" />
      <stop offset="1" stop-color="#eef8ff" />
    </linearGradient>
    <linearGradient id="badge" x1="0" x2="1" y1="0" y2="1">
      <stop offset="0" stop-color="#6f42c1" />
      <stop offset="1" stop-color="#0076df" />
    </linearGradient>
  </defs>
  <rect width="960" height="540" fill="url(#bg)" />
  <rect x="104" y="78" width="752" height="336" rx="28" fill="#ffffff" />
  <rect x="150" y="128" width="290" height="202" rx="18" fill="url(#badge)" />
  <rect x="190" y="172" width="162" height="20" rx="10" fill="#ffffff" opacity=".9" />
  <rect x="190" y="212" width="210" height="12" rx="6" fill="#ffffff" opacity=".58" />
  <rect x="190" y="240" width="178" height="12" rx="6" fill="#ffffff" opacity=".44" />
  <circle cx="584" cy="174" r="42" fill="#f2b84b" />
  <path d="M510 324c10-62 46-98 91-98s81 36 91 98" fill="#15324f" />
  <rect x="668" y="128" width="92" height="162" rx="14" fill="#eaf0f6" />
  <rect x="688" y="154" width="52" height="10" rx="5" fill="#0076df" />
  <rect x="688" y="180" width="52" height="10" rx="5" fill="#2a9d8f" />
  <rect x="688" y="206" width="52" height="10" rx="5" fill="#6f42c1" />
  <path d="M162 386h628" stroke="#d5dde8" stroke-width="10" stroke-linecap="round" />
  <text x="104" y="488" fill="#15324f" font-family="Arial, Helvetica, sans-serif" font-size="30" font-weight="700">Academic Events</text>
</svg>
